<svg xml:space="preserve" style="enable-background:new 0 0 240 50.3;" viewBox="0 0 240 50.3" height="50.3px" width="240px" y="0px" x="0px" xmlns:xlink="http://www.w3.org/1999/xlink" xmlns="http://www.w3.org/2000/svg" id="图层_1" version="1.1">
<g>
	<path d="M32.5,16.1H11.3c-0.8,0-1.8,0.6-2.1,1.4l-2.2,5c-0.3,0.8,0,1.4,0.8,1.4H15c0.8,0,1.8-0.6,2.1-1.4
		l1.4-3.1c0.2-0.6,0.9-1,1.6-1c1.3,0,2.1,1.3,1.6,2.5l-1.9,4.4c-0.2,0.6-0.9,1-1.6,1H6.9c-0.8,0-1.8,0.6-2.1,1.4l-4.3,9.6
		c-0.3,0.8,0,1.4,0.8,1.4h21.2c0.8,0,1.8-0.6,2.1-1.4l8.7-19.7C33.7,16.8,33.3,16.1,32.5,16.1z M17.2,31.1l-1.9,4.4
		c-0.2,0.6-0.9,1-1.6,1c-1.3,0-2.1-1.3-1.6-2.5l1.9-4.4c0.2-0.6,0.9-1,1.6-1C16.9,28.6,17.7,29.9,17.2,31.1z" style="fill:#FFFFFF;"></path>
	<path d="M206.7,16.1h-21.2c-0.8,0-1.8,0.6-2.1,1.4l-2.2,5c-0.3,0.8,0,1.4,0.8,1.4h7.2c0.8,0,1.8-0.6,2.1-1.4
		l1.4-3.1c0.2-0.6,0.9-1,1.6-1c1.3,0,2.1,1.3,1.6,2.5l-1.9,4.4c-0.2,0.6-0.9,1-1.6,1h-11.4c-0.8,0-1.8,0.6-2.1,1.4l-4.3,9.6
		c-0.3,0.8,0,1.4,0.8,1.4h21.2c0.8,0,1.8-0.6,2.1-1.4l8.7-19.7C207.9,16.8,207.6,16.1,206.7,16.1z M191.5,31.1l-1.9,4.4
		c-0.2,0.6-0.9,1-1.6,1c-1.3,0-2.1-1.3-1.6-2.5l1.9-4.4c0.2-0.6,0.9-1,1.6-1C191.1,28.6,191.9,29.9,191.5,31.1z" style="fill:#FFFFFF;"></path>
	<path d="M160.2,29.7c0.2-0.6,0.9-1,1.6-1h11.4c0.8,0,1.8-0.6,2.1-1.4l4.3-9.6c0.3-0.8,0-1.4-0.8-1.4h-21.2
		c-0.8,0-1.8,0.6-2.1,1.4l-8.7,19.7c-0.3,0.8,0,1.4,0.8,1.4h21.2c0.8,0,1.8-0.6,2.1-1.4l2.2-5c0.3-0.8,0-1.4-0.8-1.4h-7.2
		c-0.8,0-1.8,0.6-2.1,1.4l-1.4,3.1c-0.2,0.6-0.9,1-1.6,1c-1.3,0-2.1-1.3-1.6-2.5L160.2,29.7z M162.8,23.8l1.9-4.4
		c0.2-0.6,0.9-1,1.6-1c1.3,0,2.1,1.3,1.6,2.5l-1.9,4.4c-0.2,0.6-0.9,1-1.6,1C163.1,26.3,162.2,25,162.8,23.8z" style="fill:#FFFFFF;"></path>
	<path d="M116.5,16.1H95.3c-0.8,0-1.8,0.6-2.1,1.4l-2.2,5c-0.3,0.8,0,1.4,0.8,1.4H99c0.8,0,1.8-0.6,2.1-1.4
		l1.4-3.1c0.2-0.6,0.9-1,1.6-1c1.3,0,2.1,1.3,1.6,2.5l-1.9,4.4c-0.2,0.6-0.9,1-1.6,1H90.9c-0.8,0-1.8,0.6-2.1,1.4l-4.3,9.6
		c-0.3,0.8,0,1.4,0.8,1.4h21.2c0.8,0,1.8-0.6,2.1-1.4l8.7-19.7C117.7,16.8,117.3,16.1,116.5,16.1z M101.2,31.1l-1.9,4.4
		c-0.2,0.6-0.9,1-1.6,1c-1.3,0-2.1-1.3-1.6-2.5l1.9-4.4c0.2-0.6,0.9-1,1.6-1C100.8,28.6,101.7,29.9,101.2,31.1z" style="fill:#FFFFFF;"></path>
	<path d="M146.2,26.3h-9.8c-1.3,0-2.1-1.3-1.6-2.5l1.9-4.4c0.2-0.6,0.9-1,1.6-1c1.3,0,2.1,1.3,1.6,2.5
		l-0.7,1.6c-0.3,0.8,0,1.4,0.8,1.4h7.2c0.8,0,1.8-0.6,2.1-1.4l1.9-4.2l0.3-0.8c0.3-0.8,0-1.4-0.8-1.4h-21.2c-0.8,0-1.8,0.6-2.1,1.4
		l-4.3,9.6c-0.3,0.8,0,1.4,0.8,1.4h9.8c1.3,0,2.1,1.3,1.6,2.5l-1.9,4.4c-0.2,0.6-0.9,1-1.6,1c-1.3,0-2.1-1.3-1.6-2.5l0.7-1.6
		c0.3-0.8,0-1.4-0.8-1.4H123c-0.8,0-1.8,0.6-2.1,1.4l-2.2,5c-0.3,0.8,0,1.4,0.8,1.4h21.2c0.8,0,1.8-0.6,2.1-1.4l4.3-9.6
		C147.4,27,147,26.3,146.2,26.3z" style="fill:#FFFFFF;"></path>
	<path d="M60.5,16.1H39.3c-0.8,0-1.8,0.6-2.1,1.4l-8.7,19.8c-0.3,0.8,0,1.4,0.8,1.4h7.2
		c0.8,0,1.8-0.6,2.1-1.4l7.9-17.9c0.2-0.6,0.9-1,1.6-1c1.3,0,2.1,1.3,1.6,2.5l-7.3,16.4c-0.3,0.8,0,1.4,0.8,1.4h7.2
		c0.8,0,1.8-0.6,2.1-1.4l8.7-19.7C61.7,16.8,61.3,16.1,60.5,16.1z" style="fill:#FFFFFF;"></path>
	<path d="M92.4,9.7L87,0l-6.7,15c-0.2,0.6-0.9,1-1.6,1H67.3c-0.8,0-1.8,0.6-2.1,1.4l-8.7,19.8
		c-0.3,0.8,0,1.4,0.8,1.4h21.2c0.8,0,1.8-0.6,2.1-1.4l11.8-26.6C92.6,10.4,92.6,9.9,92.4,9.7z M77.7,20.9l-6.5,14.5
		c-0.2,0.6-0.9,1-1.6,1c-1.3,0-2.1-1.3-1.6-2.5l6.5-14.5c0.2-0.6,0.9-1,1.6-1C77.4,18.5,78.3,19.8,77.7,20.9z" style="fill:#FFFFFF;"></path>
	<path d="M211.1,11.6l-1,2.2h9.2l-11.5,25.8c-0.1,0.3-0.2,0.7,0,1l5.3,9.7l16.2-36.4h9.2l1-2.2L211.1,11.6z" style="fill:#FFFFFF;"></path>
</g>
</svg>
